<?xml version="1.0" standalone="no"?>
<!DOCTYPE svg PUBLIC "-//W3C//DTD SVG 20010904//EN"
 "http://www.w3.org/TR/2001/REC-SVG-20010904/DTD/svg10.dtd">
<svg version="1.0" xmlns="http://www.w3.org/2000/svg"
 width="218.000000pt" height="300.000000pt" viewBox="0 0 218.000000 300.000000"
 preserveAspectRatio="xMidYMid meet">
<metadata>
Created by potrace 1.10, written by Peter Selinger 2001-2011
</metadata>
<g transform="translate(0.000000,300.000000) scale(0.050000,-0.050000)"
fill="#d51b1b" stroke="none">
<path d="M0 4371 l0 -1630 285 -5 285 -6 6 -155 6 -155 -291 0 -291 0 0 -625
c0 -344 6 -807 13 -1030 l13 -405 57 0 57 0 0 -180 0 -180 460 0 460 0 0 390
0 390 -50 0 -50 0 0 480 0 480 110 0 110 0 0 260 0 260 650 0 650 0 0 180 0
180 490 0 490 0 0 510 0 510 450 0 450 0 0 140 0 140 -428 0 c-475 0 -452 7
-452 -140 0 -141 2 -140 -262 -140 l-238 0 0 150 0 150 262 0 263 0 -12 365
c-6 204 -24 418 -40 485 -40 169 -95 356 -112 380 -8 11 -27 52 -42 90 -84
216 -379 470 -665 573 -377 135 -705 166 -1779 166 l-855 1 0 -1629z m1991
588 c156 -37 250 -110 319 -249 l60 -120 -2 -400 c-2 -371 -5 -409 -50 -530
l-48 -130 -375 -5 -375 -6 0 -129 0 -130 -170 0 -170 0 0 873 0 873 355 -12
c195 -6 401 -22 456 -35z"/>
</g>
</svg>
