<?xml version="1.0" standalone="no"?>
<!DOCTYPE svg PUBLIC "-//W3C//DTD SVG 20010904//EN"
 "http://www.w3.org/TR/2001/REC-SVG-20010904/DTD/svg10.dtd">
<svg version="1.0" xmlns="http://www.w3.org/2000/svg"
 width="900.000000pt" height="234.000000pt" viewBox="0 0 900.000000 234.000000"
 preserveAspectRatio="xMidYMid meet">
<metadata>
Created by potrace 1.10, written by Peter Selinger 2001-2011
</metadata>
<g transform="translate(0.000000,234.000000) scale(0.100000,-0.100000)"
fill="#FFFFFF" stroke="none">
<path d="M0 1695 l0 -644 97 -3 98 -3 6 -37 c9 -57 3 -61 -105 -59 l-96 2 0
-405 c0 -396 0 -405 20 -411 17 -5 20 -15 20 -71 l0 -64 185 0 185 0 0 155 c0
144 -1 155 -20 165 -19 10 -20 21 -20 169 0 169 2 176 50 183 24 3 25 5 28 96
1 50 4 93 5 94 1 1 112 5 247 8 l245 5 3 57 c2 31 9 61 16 67 7 6 84 12 192
13 l179 3 2 180 c1 99 3 186 3 192 0 9 44 13 168 15 l167 3 6 45 c4 25 2 51
-3 57 -7 9 -59 13 -172 15 l-161 3 3 25 c11 83 -6 295 -30 375 -38 126 -120
243 -203 288 -92 49 -170 76 -240 84 -67 7 -85 13 -85 28 0 13 -53 15 -395 15
l-395 0 0 -645z m813 195 c68 -41 90 -104 90 -265 -1 -115 -10 -189 -28 -224
l-15 -30 -133 -3 -132 -3 -3 -35 c-2 -19 -8 -41 -14 -47 -13 -16 -100 -17
-116 -1 -9 9 -12 93 -12 315 0 291 1 304 19 311 11 4 85 6 164 5 127 -2 149
-5 180 -23z m522 -401 c11 -32 -3 -68 -28 -74 -13 -4 -50 -5 -82 -3 l-60 3 -3
48 -3 47 85 0 c77 0 85 -2 91 -21z"/>
<path d="M3144 2293 c-9 -62 18 -259 49 -354 16 -48 151 -275 178 -299 18 -17
279 -419 279 -431 0 -8 -5 -20 -11 -26 -6 -6 -16 -20 -23 -32 -10 -18 -84
-130 -93 -141 -2 -2 -41 -7 -86 -10 l-82 -5 -3 -112 -3 -112 58 -3 c54 -3 58
-5 58 -28 l0 -25 -130 -5 -130 -5 -3 -157 -3 -158 -35 0 c-73 0 -74 -1 -74
-183 0 -89 3 -172 6 -185 l6 -22 257 2 256 3 5 155 5 155 75 5 75 5 5 170 5
170 44 88 c29 60 48 87 59 85 15 -3 17 -6 47 -73 35 -80 54 -110 72 -114 10
-1 26 -10 36 -19 15 -14 17 -41 17 -302 0 -232 3 -290 14 -299 9 -8 86 -11
257 -9 l244 3 0 45 0 45 -72 3 c-48 2 -75 8 -84 18 -20 24 0 33 81 36 l75 3 3
87 3 87 -33 3 -33 3 -5 145 -5 146 -60 97 c-33 54 -68 110 -77 125 -10 15 -21
34 -25 42 -3 8 -18 31 -32 50 -14 19 -31 44 -37 55 -10 17 -24 21 -105 25 -92
5 -94 5 -94 30 0 24 3 25 60 28 87 4 88 5 60 54 -53 92 -55 75 31 204 44 65
81 123 84 128 5 11 58 93 109 171 14 22 29 41 34 43 4 2 7 9 7 16 0 7 12 31
28 53 53 76 57 84 94 178 24 59 35 115 47 250 8 83 7 102 -5 111 -8 6 -14 16
-14 23 0 8 -59 11 -207 11 -113 0 -203 -3 -200 -6 3 -4 0 -16 -8 -28 -9 -12
-15 -43 -15 -77 0 -30 -5 -82 -11 -115 -10 -56 -59 -171 -86 -204 -7 -9 -44
-79 -82 -155 -100 -201 -90 -193 -140 -94 -73 142 -100 191 -158 284 -50 80
-73 157 -80 260 -3 55 -11 96 -19 106 -8 9 -11 19 -7 22 3 4 -95 7 -220 7
l-226 0 -7 -47z"/>
<path d="M6210 2328 c-2 -7 -4 -380 -4 -828 l-1 -815 58 -3 c56 -3 57 -4 57
-32 0 -28 -1 -29 -57 -32 l-58 -3 -3 -280 c-2 -275 -2 -280 19 -297 19 -16 50
-18 310 -18 186 0 289 -4 289 -10 0 -6 82 -10 225 -10 l225 0 0 48 c0 26 4 52
8 59 4 7 37 13 77 15 68 3 70 4 73 30 l3 28 -70 0 c-86 0 -93 8 -90 116 1 41
-1 78 -5 82 -4 4 -158 8 -342 10 l-334 3 -5 22 c-3 12 -4 231 -3 487 l3 465
45 5 45 5 3 440 c2 242 0 459 -3 483 l-6 42 -228 0 c-174 0 -228 -3 -231 -12z
m1040 -2173 c0 -5 -25 -11 -55 -13 -45 -2 -55 0 -55 13 0 13 10 15 55 13 30
-2 55 -7 55 -13z"/>
<path d="M1777 2293 c-4 -3 -7 -247 -7 -542 0 -295 -3 -546 -6 -558 -6 -23 -9
-23 -164 -23 -166 0 -190 -3 -190 -26 0 -28 41 -35 191 -33 117 1 154 -2 160
-13 5 -7 9 -70 9 -140 0 -117 2 -128 18 -128 41 0 42 -8 42 -427 l0 -403 169
0 c168 0 170 0 173 23 l3 22 355 5 c195 3 356 7 358 8 1 1 2 60 2 131 0 122 1
130 21 136 15 5 19 14 17 33 l-3 27 -290 5 -290 5 -5 65 -5 65 -60 3 c-102 5
-100 42 3 42 28 0 53 1 54 3 1 1 5 106 8 232 l5 230 249 3 c164 1 254 6 263
13 18 15 17 93 -2 109 -11 9 -15 42 -17 138 l-3 127 -295 5 -295 5 0 235 0
235 340 5 340 5 0 190 0 190 -571 3 c-314 1 -574 -1 -577 -5z m183 -1148 c0
-12 -16 -15 -85 -15 -69 0 -85 3 -85 15 0 12 16 15 85 15 69 0 85 -3 85 -15z"/>
<path d="M4887 2293 c-4 -3 -7 -257 -7 -564 l0 -559 -177 -2 -178 -3 0 -25 0
-25 175 -5 175 -5 3 -133 c3 -129 3 -133 26 -142 13 -4 26 -16 30 -25 3 -9 6
-194 6 -411 l0 -394 165 0 165 0 10 25 9 25 348 2 348 3 3 132 c2 120 4 134
22 143 16 9 28 43 18 52 -2 1 -133 5 -293 8 l-290 5 -5 65 -5 65 -63 3 c-53 3
-63 6 -60 20 2 13 16 18 55 20 28 2 56 9 62 16 7 8 12 96 13 232 l3 219 255 5
255 5 -4 180 c-2 99 -7 185 -13 190 -5 6 -126 12 -301 15 l-292 5 -3 233 c-1
127 -1 233 0 234 2 1 156 5 343 8 l340 5 0 190 0 190 -566 3 c-311 1 -569 -1
-572 -5z m188 -1148 c0 -11 -138 -20 -162 -11 -8 3 -11 11 -8 16 9 14 170 9
170 -5z"/>
<path d="M7970 2285 c-19 -7 -45 -14 -57 -14 -12 -1 -34 -7 -50 -15 -15 -8
-45 -23 -66 -33 -43 -20 -157 -119 -157 -136 0 -6 -6 -18 -13 -26 -16 -19 -39
-76 -61 -150 -22 -74 -22 -312 0 -384 33 -109 131 -265 190 -304 45 -29 27
-44 -54 -46 -52 -2 -75 -6 -82 -17 -21 -34 16 -40 231 -40 l207 0 4 -89 c1
-49 7 -93 11 -98 5 -4 86 -10 180 -13 l172 -5 3 -264 c1 -146 -2 -269 -7 -274
-11 -11 -451 -11 -463 1 -4 4 -9 88 -10 187 l-3 180 -228 3 -228 2 -17 -30
c-16 -28 -21 -30 -78 -30 -71 0 -87 -12 -82 -62 l3 -33 75 -5 75 -5 5 -115 5
-115 115 -5 115 -5 3 -173 2 -172 523 2 522 3 5 170 5 170 58 3 c51 3 59 6 67
28 15 39 13 667 -2 682 -7 7 -25 12 -41 12 -24 0 -28 4 -25 23 3 20 10 23 73
28 71 6 105 15 105 28 0 14 -68 31 -123 31 -52 0 -58 -2 -67 -25 l-10 -25
-250 0 c-216 0 -250 2 -250 15 0 13 28 15 195 15 149 0 195 3 195 13 0 11 -63
62 -100 80 -8 4 -28 16 -45 26 -29 19 -81 45 -152 77 -18 8 -48 20 -65 28
-124 55 -228 111 -258 139 -63 59 -75 90 -74 197 0 83 3 100 23 126 42 57 74
68 197 69 104 0 113 -2 152 -27 48 -32 70 -69 92 -153 l16 -60 137 -3 c99 -2
149 1 180 12 39 13 42 17 45 52 2 22 -4 73 -13 114 -58 253 -159 373 -364 431
-55 16 -99 19 -261 18 -138 0 -205 -4 -230 -14z m-376 -1618 c13 -10 16 -20
11 -36 -6 -20 -12 -22 -58 -19 -53 3 -67 17 -53 54 7 18 76 19 100 1z"/>
</g>
</svg>
